<svg xmlns="http://www.w3.org/2000/svg" viewBox="0 0 1180 1460" font-family="Iowan Old Style, Palatino Linotype, Palatino, Georgia, 'Times New Roman', serif"><defs><filter id="grain"><feTurbulence type="fractalNoise" baseFrequency="0.9" numOctaves="2" stitchTiles="stitch"/><feColorMatrix type="saturate" values="0"/><feComponentTransfer><feFuncA type="linear" slope="0.05"/></feComponentTransfer></filter></defs><rect width="1180" height="1460" fill="#ece0c4"/><rect width="1180" height="1460" filter="url(#grain)" opacity="0.5"/><rect x="22" y="22" width="1136" height="1416" fill="none" stroke="#2c2316" stroke-width="2.5"/><rect x="30" y="30" width="1120" height="1400" fill="none" stroke="#b6a682" stroke-width="1"/><text x="590.0" y="78" font-family="Iowan Old Style, Palatino Linotype, Palatino, Georgia, 'Times New Roman', serif" font-size="34" fill="#2c2316" font-weight="700" text-anchor="middle" >Unit Block — Formation Rendering</text><text x="590.0" y="102" font-family="Avenir Next Condensed, 'Avenir Next', 'Helvetica Neue', Helvetica, sans-serif" font-size="13" fill="#6e6047" font-weight="600" letter-spacing="2.6" text-anchor="middle">CHAINMAIL HTML SIM · THE BLOCK IS THE MODEL, PIPS ARE THE VIEW</text><line x1="80" y1="118" x2="1100" y2="118" stroke="#b6a682" stroke-width="1"/><text x="60" y="150" font-family="Avenir Next Condensed, 'Avenir Next', 'Helvetica Neue', Helvetica, sans-serif" font-size="14" fill="#2c2316" font-weight="700" letter-spacing="3" text-anchor="start">1 · ANATOMY</text><path d="M 279.0 293.0 L 172.9 186.9 A 150 150 0 0 1 385.1 186.9 Z" fill="#d8b25a" opacity="0.16" stroke="#d8b25a" stroke-width="1" stroke-dasharray="3 4"/><g><rect x="203" y="293" width="152" height="123" rx="4" fill="#f5eedb" stroke="#6e6047" stroke-width="1.2" opacity="0.96"/><rect x="210" y="300" width="22" height="22" rx="3.2" fill="#ecd08a" stroke="#27516c" stroke-width="1.3"/><rect x="213" y="303" width="16" height="16" rx="2" fill="none" stroke="#27516c" stroke-width="1"/><rect x="239" y="300" width="22" height="22" rx="3.2" fill="#ecd08a" stroke="#27516c" stroke-width="1.3"/><rect x="242" y="303" width="16" height="16" rx="2" fill="none" stroke="#27516c" stroke-width="1"/><rect x="268" y="300" width="22" height="22" rx="3.2" fill="#ecd08a" stroke="#27516c" stroke-width="1.3"/><rect x="271" y="303" width="16" height="16" rx="2" fill="none" stroke="#27516c" stroke-width="1"/><rect x="297" y="300" width="22" height="22" rx="3.2" fill="#ecd08a" stroke="#27516c" stroke-width="1.3"/><rect x="300" y="303" width="16" height="16" rx="2" fill="none" stroke="#27516c" stroke-width="1"/><rect x="326" y="300" width="22" height="22" rx="3.2" fill="#ecd08a" stroke="#27516c" stroke-width="1.3"/><rect x="329" y="303" width="16" height="16" rx="2" fill="none" stroke="#27516c" stroke-width="1"/><rect x="210" y="329" width="22" height="22" rx="3.2" fill="#3a6e90" stroke="#27516c" stroke-width="1.3"/><rect x="239" y="329" width="22" height="22" rx="3.2" fill="#3a6e90" stroke="#27516c" stroke-width="1.3"/><rect x="268" y="329" width="22" height="22" rx="3.2" fill="#3a6e90" stroke="#27516c" stroke-width="1.3"/><rect x="297" y="329" width="22" height="22" rx="3.2" fill="#3a6e90" stroke="#27516c" stroke-width="1.3"/><rect x="326" y="329" width="22" height="22" rx="3.2" fill="#3a6e90" stroke="#27516c" stroke-width="1.3"/><rect x="210" y="358" width="22" height="22" rx="3.2" fill="#3a6e90" stroke="#27516c" stroke-width="1.3"/><rect x="239" y="358" width="22" height="22" rx="3.2" fill="#3a6e90" stroke="#27516c" stroke-width="1.3"/><rect x="268" y="358" width="22" height="22" rx="3.2" fill="#3a6e90" stroke="#27516c" stroke-width="1.3"/><rect x="297" y="358" width="22" height="22" rx="3.2" fill="#3a6e90" stroke="#27516c" stroke-width="1.3"/><rect x="326" y="358" width="22" height="22" rx="3.2" fill="#3a6e90" stroke="#27516c" stroke-width="1.3"/><rect x="210" y="387" width="22" height="22" rx="3.2" fill="#3a6e90" stroke="#27516c" stroke-width="1.3"/><rect x="239" y="387" width="22" height="22" rx="3.2" fill="#3a6e90" stroke="#27516c" stroke-width="1.3"/><rect x="268" y="387" width="22" height="22" rx="3.2" fill="#3a6e90" stroke="#27516c" stroke-width="1.3"/><rect x="297" y="387" width="22" height="22" rx="3.2" fill="#3a6e90" stroke="#27516c" stroke-width="1.3"/><rect x="326" y="387" width="22" height="22" rx="3.2" fill="#3a6e90" stroke="#27516c" stroke-width="1.3"/><line x1="203" y1="293" x2="355" y2="293" stroke="#2f7d4f" stroke-width="4.5" stroke-linecap="round"/><line x1="355" y1="293" x2="355" y2="416" stroke="#c0892e" stroke-width="3.0" stroke-linecap="round"/><line x1="203" y1="416" x2="355" y2="416" stroke="#c0892e" stroke-width="3.0" stroke-linecap="round"/><line x1="203" y1="293" x2="203" y2="416" stroke="#b0392c" stroke-width="3.0" stroke-linecap="round"/></g><g><rect x="203" y="432" width="168" height="34" rx="4" fill="#2c2316" /><rect x="212" y="441" width="16" height="16" rx="2.5" fill="#3a6e90" stroke="#000" stroke-opacity="0.25"/><text x="237" y="448" font-family="Avenir Next Condensed, 'Avenir Next', 'Helvetica Neue', Helvetica, sans-serif" font-size="12" fill="#f3ead4" font-weight="700" letter-spacing="1.6" text-anchor="start">HEAVY FOOT</text><text x="237" y="460" font-family="Avenir Next Condensed, 'Avenir Next', 'Helvetica Neue', Helvetica, sans-serif" font-size="11" fill="#caa86f" letter-spacing="1">20 / 20 figures</text></g><line x1="546" y1="195" x2="319.0" y2="198" stroke="#6e6047" stroke-width="1" stroke-dasharray="2 3"/><circle cx="319.0" cy="198" r="3" fill="#2c2316"/><text x="560" y="200" font-family="Avenir Next Condensed, 'Avenir Next', 'Helvetica Neue', Helvetica, sans-serif" font-size="12.5" fill="#2c2316" font-weight="700" letter-spacing="1.8" text-anchor="start">ARC OF FIRE</text><text x="560" y="220" font-family="Iowan Old Style, Palatino Linotype, Palatino, Georgia, 'Times New Roman', serif" font-size="14.5" fill="#6e6047" font-weight="400" text-anchor="start" >45° for foot · 180°+45° for horse</text><line x1="546" y1="257" x2="355" y2="293" stroke="#6e6047" stroke-width="1" stroke-dasharray="2 3"/><circle cx="355" cy="293" r="3" fill="#2c2316"/><text x="560" y="262" font-family="Avenir Next Condensed, 'Avenir Next', 'Helvetica Neue', Helvetica, sans-serif" font-size="12.5" fill="#2c2316" font-weight="700" letter-spacing="1.8" text-anchor="start">FRONT EDGE</text><text x="560" y="282" font-family="Iowan Old Style, Palatino Linotype, Palatino, Georgia, 'Times New Roman', serif" font-size="14.5" fill="#6e6047" font-weight="400" text-anchor="start" >flank / rear detection keys off this edge</text><line x1="546" y1="325" x2="355" y2="311.0" stroke="#6e6047" stroke-width="1" stroke-dasharray="2 3"/><circle cx="355" cy="311.0" r="3" fill="#2c2316"/><text x="560" y="330" font-family="Avenir Next Condensed, 'Avenir Next', 'Helvetica Neue', Helvetica, sans-serif" font-size="12.5" fill="#2c2316" font-weight="700" letter-spacing="1.8" text-anchor="start">FRONT RANK LIT</text><text x="560" y="350" font-family="Iowan Old Style, Palatino Linotype, Palatino, Georgia, 'Times New Roman', serif" font-size="14.5" fill="#6e6047" font-weight="400" text-anchor="start" >only one rank melees · first two fire</text><line x1="546" y1="393" x2="355" y2="354.5" stroke="#6e6047" stroke-width="1" stroke-dasharray="2 3"/><circle cx="355" cy="354.5" r="3" fill="#2c2316"/><text x="560" y="398" font-family="Avenir Next Condensed, 'Avenir Next', 'Helvetica Neue', Helvetica, sans-serif" font-size="12.5" fill="#2c2316" font-weight="700" letter-spacing="1.8" text-anchor="start">FLANK EDGE</text><text x="560" y="418" font-family="Iowan Old Style, Palatino Linotype, Palatino, Georgia, 'Times New Roman', serif" font-size="14.5" fill="#6e6047" font-weight="400" text-anchor="start" >contact here → attacker fights one class up</text><line x1="546" y1="461" x2="279.0" y2="416" stroke="#6e6047" stroke-width="1" stroke-dasharray="2 3"/><circle cx="279.0" cy="416" r="3" fill="#2c2316"/><text x="560" y="466" font-family="Avenir Next Condensed, 'Avenir Next', 'Helvetica Neue', Helvetica, sans-serif" font-size="12.5" fill="#2c2316" font-weight="700" letter-spacing="1.8" text-anchor="start">REAR EDGE</text><text x="560" y="486" font-family="Iowan Old Style, Palatino Linotype, Palatino, Georgia, 'Times New Roman', serif" font-size="14.5" fill="#6e6047" font-weight="400" text-anchor="start" >contact here → casualties, no return blow</text><text x="560" y="524" font-family="Avenir Next Condensed, 'Avenir Next', 'Helvetica Neue', Helvetica, sans-serif" font-size="12" fill="#6e6047" font-weight="500" letter-spacing="1.4" text-anchor="start">1 PIP = 1 MAN · SPACING SLIDER SETS CLOSE VS OPEN ORDER</text><line x1="60" y1="556" x2="1120" y2="556" stroke="#b6a682" stroke-width="1"/><text x="60" y="588" font-family="Avenir Next Condensed, 'Avenir Next', 'Helvetica Neue', Helvetica, sans-serif" font-size="14" fill="#2c2316" font-weight="700" letter-spacing="3" text-anchor="start">2 · FORMATIONS — SAME 20 MEN, SHAPE IS A PARAMETER</text><g><rect x="185.5" y="636.0" width="44" height="188" rx="4" fill="#f5eedb" stroke="#6e6047" stroke-width="1.2" opacity="0.96"/><rect x="192.5" y="643.0" width="12" height="12" rx="3.2" fill="#ecd08a" stroke="#27516c" stroke-width="1.3"/><rect x="195.5" y="646.0" width="6" height="6" rx="2" fill="none" stroke="#27516c" stroke-width="1"/><rect x="210.5" y="643.0" width="12" height="12" rx="3.2" fill="#ecd08a" stroke="#27516c" stroke-width="1.3"/><rect x="213.5" y="646.0" width="6" height="6" rx="2" fill="none" stroke="#27516c" stroke-width="1"/><rect x="192.5" y="661.0" width="12" height="12" rx="3.2" fill="#3a6e90" stroke="#27516c" stroke-width="1.3"/><rect x="210.5" y="661.0" width="12" height="12" rx="3.2" fill="#3a6e90" stroke="#27516c" stroke-width="1.3"/><rect x="192.5" y="679.0" width="12" height="12" rx="3.2" fill="#3a6e90" stroke="#27516c" stroke-width="1.3"/><rect x="210.5" y="679.0" width="12" height="12" rx="3.2" fill="#3a6e90" stroke="#27516c" stroke-width="1.3"/><rect x="192.5" y="697.0" width="12" height="12" rx="3.2" fill="#3a6e90" stroke="#27516c" stroke-width="1.3"/><rect x="210.5" y="697.0" width="12" height="12" rx="3.2" fill="#3a6e90" stroke="#27516c" stroke-width="1.3"/><rect x="192.5" y="715.0" width="12" height="12" rx="3.2" fill="#3a6e90" stroke="#27516c" stroke-width="1.3"/><rect x="210.5" y="715.0" width="12" height="12" rx="3.2" fill="#3a6e90" stroke="#27516c" stroke-width="1.3"/><rect x="192.5" y="733.0" width="12" height="12" rx="3.2" fill="#3a6e90" stroke="#27516c" stroke-width="1.3"/><rect x="210.5" y="733.0" width="12" height="12" rx="3.2" fill="#3a6e90" stroke="#27516c" stroke-width="1.3"/><rect x="192.5" y="751.0" width="12" height="12" rx="3.2" fill="#3a6e90" stroke="#27516c" stroke-width="1.3"/><rect x="210.5" y="751.0" width="12" height="12" rx="3.2" fill="#3a6e90" stroke="#27516c" stroke-width="1.3"/><rect x="192.5" y="769.0" width="12" height="12" rx="3.2" fill="#3a6e90" stroke="#27516c" stroke-width="1.3"/><rect x="210.5" y="769.0" width="12" height="12" rx="3.2" fill="#3a6e90" stroke="#27516c" stroke-width="1.3"/><rect x="192.5" y="787.0" width="12" height="12" rx="3.2" fill="#3a6e90" stroke="#27516c" stroke-width="1.3"/><rect x="210.5" y="787.0" width="12" height="12" rx="3.2" fill="#3a6e90" stroke="#27516c" stroke-width="1.3"/><rect x="192.5" y="805.0" width="12" height="12" rx="3.2" fill="#3a6e90" stroke="#27516c" stroke-width="1.3"/><rect x="210.5" y="805.0" width="12" height="12" rx="3.2" fill="#3a6e90" stroke="#27516c" stroke-width="1.3"/><line x1="185.5" y1="636.0" x2="229.5" y2="636.0" stroke="#2f7d4f" stroke-width="4.5" stroke-linecap="round"/><line x1="229.5" y1="636.0" x2="229.5" y2="824.0" stroke="#c0892e" stroke-width="3.0" stroke-linecap="round"/><line x1="185.5" y1="824.0" x2="229.5" y2="824.0" stroke="#b0392c" stroke-width="3.0" stroke-linecap="round"/><line x1="185.5" y1="636.0" x2="185.5" y2="824.0" stroke="#c0892e" stroke-width="3.0" stroke-linecap="round"/></g><text x="207.5" y="856" font-family="Iowan Old Style, Palatino Linotype, Palatino, Georgia, 'Times New Roman', serif" font-size="17" fill="#2c2316" font-weight="700" text-anchor="middle" >Column</text><text x="207.5" y="876" font-family="Avenir Next Condensed, 'Avenir Next', 'Helvetica Neue', Helvetica, sans-serif" font-size="11.5" fill="#6e6047" font-weight="400" text-anchor="middle" >narrow, deep · 1 move</text><line x1="335" y1="650" x2="335" y2="830" stroke="#b6a682" stroke-width="0.8" stroke-dasharray="2 4"/><g><rect x="348.5" y="704.0" width="228" height="52" rx="4" fill="#f5eedb" stroke="#6e6047" stroke-width="1.2" opacity="0.96"/><rect x="355.5" y="711.0" width="16" height="16" rx="3.2" fill="#ecd08a" stroke="#27516c" stroke-width="1.3"/><rect x="358.5" y="714.0" width="10" height="10" rx="2" fill="none" stroke="#27516c" stroke-width="1"/><rect x="377.5" y="711.0" width="16" height="16" rx="3.2" fill="#ecd08a" stroke="#27516c" stroke-width="1.3"/><rect x="380.5" y="714.0" width="10" height="10" rx="2" fill="none" stroke="#27516c" stroke-width="1"/><rect x="399.5" y="711.0" width="16" height="16" rx="3.2" fill="#ecd08a" stroke="#27516c" stroke-width="1.3"/><rect x="402.5" y="714.0" width="10" height="10" rx="2" fill="none" stroke="#27516c" stroke-width="1"/><rect x="421.5" y="711.0" width="16" height="16" rx="3.2" fill="#ecd08a" stroke="#27516c" stroke-width="1.3"/><rect x="424.5" y="714.0" width="10" height="10" rx="2" fill="none" stroke="#27516c" stroke-width="1"/><rect x="443.5" y="711.0" width="16" height="16" rx="3.2" fill="#ecd08a" stroke="#27516c" stroke-width="1.3"/><rect x="446.5" y="714.0" width="10" height="10" rx="2" fill="none" stroke="#27516c" stroke-width="1"/><rect x="465.5" y="711.0" width="16" height="16" rx="3.2" fill="#ecd08a" stroke="#27516c" stroke-width="1.3"/><rect x="468.5" y="714.0" width="10" height="10" rx="2" fill="none" stroke="#27516c" stroke-width="1"/><rect x="487.5" y="711.0" width="16" height="16" rx="3.2" fill="#ecd08a" stroke="#27516c" stroke-width="1.3"/><rect x="490.5" y="714.0" width="10" height="10" rx="2" fill="none" stroke="#27516c" stroke-width="1"/><rect x="509.5" y="711.0" width="16" height="16" rx="3.2" fill="#ecd08a" stroke="#27516c" stroke-width="1.3"/><rect x="512.5" y="714.0" width="10" height="10" rx="2" fill="none" stroke="#27516c" stroke-width="1"/><rect x="531.5" y="711.0" width="16" height="16" rx="3.2" fill="#ecd08a" stroke="#27516c" stroke-width="1.3"/><rect x="534.5" y="714.0" width="10" height="10" rx="2" fill="none" stroke="#27516c" stroke-width="1"/><rect x="553.5" y="711.0" width="16" height="16" rx="3.2" fill="#ecd08a" stroke="#27516c" stroke-width="1.3"/><rect x="556.5" y="714.0" width="10" height="10" rx="2" fill="none" stroke="#27516c" stroke-width="1"/><rect x="355.5" y="733.0" width="16" height="16" rx="3.2" fill="#3a6e90" stroke="#27516c" stroke-width="1.3"/><rect x="377.5" y="733.0" width="16" height="16" rx="3.2" fill="#3a6e90" stroke="#27516c" stroke-width="1.3"/><rect x="399.5" y="733.0" width="16" height="16" rx="3.2" fill="#3a6e90" stroke="#27516c" stroke-width="1.3"/><rect x="421.5" y="733.0" width="16" height="16" rx="3.2" fill="#3a6e90" stroke="#27516c" stroke-width="1.3"/><rect x="443.5" y="733.0" width="16" height="16" rx="3.2" fill="#3a6e90" stroke="#27516c" stroke-width="1.3"/><rect x="465.5" y="733.0" width="16" height="16" rx="3.2" fill="#3a6e90" stroke="#27516c" stroke-width="1.3"/><rect x="487.5" y="733.0" width="16" height="16" rx="3.2" fill="#3a6e90" stroke="#27516c" stroke-width="1.3"/><rect x="509.5" y="733.0" width="16" height="16" rx="3.2" fill="#3a6e90" stroke="#27516c" stroke-width="1.3"/><rect x="531.5" y="733.0" width="16" height="16" rx="3.2" fill="#3a6e90" stroke="#27516c" stroke-width="1.3"/><rect x="553.5" y="733.0" width="16" height="16" rx="3.2" fill="#3a6e90" stroke="#27516c" stroke-width="1.3"/><line x1="348.5" y1="704.0" x2="576.5" y2="704.0" stroke="#2f7d4f" stroke-width="4.5" stroke-linecap="round"/><line x1="576.5" y1="704.0" x2="576.5" y2="756.0" stroke="#c0892e" stroke-width="3.0" stroke-linecap="round"/><line x1="348.5" y1="756.0" x2="576.5" y2="756.0" stroke="#b0392c" stroke-width="3.0" stroke-linecap="round"/><line x1="348.5" y1="704.0" x2="348.5" y2="756.0" stroke="#c0892e" stroke-width="3.0" stroke-linecap="round"/></g><text x="462.5" y="856" font-family="Iowan Old Style, Palatino Linotype, Palatino, Georgia, 'Times New Roman', serif" font-size="17" fill="#2c2316" font-weight="700" text-anchor="middle" >Line</text><text x="462.5" y="876" font-family="Avenir Next Condensed, 'Avenir Next', 'Helvetica Neue', Helvetica, sans-serif" font-size="11.5" fill="#6e6047" font-weight="400" text-anchor="middle" >wide, shallow · the front</text><line x1="590" y1="650" x2="590" y2="830" stroke="#b6a682" stroke-width="0.8" stroke-dasharray="2 4"/><g><rect x="663.5" y="686.0" width="108" height="88" rx="4" fill="#f5eedb" stroke="#6e6047" stroke-width="1.2" opacity="0.96"/><rect x="670.5" y="693.0" width="14" height="14" rx="3.2" fill="#3a6e90" stroke="#27516c" stroke-width="1.3"/><rect x="690.5" y="693.0" width="14" height="14" rx="3.2" fill="#3a6e90" stroke="#27516c" stroke-width="1.3"/><rect x="710.5" y="693.0" width="14" height="14" rx="3.2" fill="#3a6e90" stroke="#27516c" stroke-width="1.3"/><rect x="730.5" y="693.0" width="14" height="14" rx="3.2" fill="#3a6e90" stroke="#27516c" stroke-width="1.3"/><rect x="750.5" y="693.0" width="14" height="14" rx="3.2" fill="#3a6e90" stroke="#27516c" stroke-width="1.3"/><rect x="670.5" y="713.0" width="14" height="14" rx="3.2" fill="#3a6e90" stroke="#27516c" stroke-width="1.3"/><rect x="690.5" y="713.0" width="14" height="14" rx="3.2" fill="#3a6e90" stroke="#27516c" stroke-width="1.3"/><rect x="710.5" y="713.0" width="14" height="14" rx="3.2" fill="#3a6e90" stroke="#27516c" stroke-width="1.3"/><rect x="730.5" y="713.0" width="14" height="14" rx="3.2" fill="#3a6e90" stroke="#27516c" stroke-width="1.3"/><rect x="750.5" y="713.0" width="14" height="14" rx="3.2" fill="#3a6e90" stroke="#27516c" stroke-width="1.3"/><rect x="670.5" y="733.0" width="14" height="14" rx="3.2" fill="#3a6e90" stroke="#27516c" stroke-width="1.3"/><rect x="690.5" y="733.0" width="14" height="14" rx="3.2" fill="#3a6e90" stroke="#27516c" stroke-width="1.3"/><rect x="710.5" y="733.0" width="14" height="14" rx="3.2" fill="#3a6e90" stroke="#27516c" stroke-width="1.3"/><rect x="730.5" y="733.0" width="14" height="14" rx="3.2" fill="#3a6e90" stroke="#27516c" stroke-width="1.3"/><rect x="750.5" y="733.0" width="14" height="14" rx="3.2" fill="#3a6e90" stroke="#27516c" stroke-width="1.3"/><rect x="670.5" y="753.0" width="14" height="14" rx="3.2" fill="#3a6e90" stroke="#27516c" stroke-width="1.3"/><rect x="690.5" y="753.0" width="14" height="14" rx="3.2" fill="#3a6e90" stroke="#27516c" stroke-width="1.3"/><rect x="710.5" y="753.0" width="14" height="14" rx="3.2" fill="#3a6e90" stroke="#27516c" stroke-width="1.3"/><rect x="730.5" y="753.0" width="14" height="14" rx="3.2" fill="#3a6e90" stroke="#27516c" stroke-width="1.3"/><rect x="750.5" y="753.0" width="14" height="14" rx="3.2" fill="#3a6e90" stroke="#27516c" stroke-width="1.3"/><line x1="677.5" y1="686.0" x2="677.5" y2="679.0" stroke="#2c2316" stroke-width="1.6"/><line x1="677.5" y1="774.0" x2="677.5" y2="781.0" stroke="#2c2316" stroke-width="1.6"/><line x1="697.5" y1="686.0" x2="697.5" y2="679.0" stroke="#2c2316" stroke-width="1.6"/><line x1="697.5" y1="774.0" x2="697.5" y2="781.0" stroke="#2c2316" stroke-width="1.6"/><line x1="717.5" y1="686.0" x2="717.5" y2="679.0" stroke="#2c2316" stroke-width="1.6"/><line x1="717.5" y1="774.0" x2="717.5" y2="781.0" stroke="#2c2316" stroke-width="1.6"/><line x1="737.5" y1="686.0" x2="737.5" y2="679.0" stroke="#2c2316" stroke-width="1.6"/><line x1="737.5" y1="774.0" x2="737.5" y2="781.0" stroke="#2c2316" stroke-width="1.6"/><line x1="757.5" y1="686.0" x2="757.5" y2="679.0" stroke="#2c2316" stroke-width="1.6"/><line x1="757.5" y1="774.0" x2="757.5" y2="781.0" stroke="#2c2316" stroke-width="1.6"/><line x1="663.5" y1="700.0" x2="656.5" y2="700.0" stroke="#2c2316" stroke-width="1.6"/><line x1="771.5" y1="700.0" x2="778.5" y2="700.0" stroke="#2c2316" stroke-width="1.6"/><line x1="663.5" y1="720.0" x2="656.5" y2="720.0" stroke="#2c2316" stroke-width="1.6"/><line x1="771.5" y1="720.0" x2="778.5" y2="720.0" stroke="#2c2316" stroke-width="1.6"/><line x1="663.5" y1="740.0" x2="656.5" y2="740.0" stroke="#2c2316" stroke-width="1.6"/><line x1="771.5" y1="740.0" x2="778.5" y2="740.0" stroke="#2c2316" stroke-width="1.6"/><line x1="663.5" y1="760.0" x2="656.5" y2="760.0" stroke="#2c2316" stroke-width="1.6"/><line x1="771.5" y1="760.0" x2="778.5" y2="760.0" stroke="#2c2316" stroke-width="1.6"/><line x1="663.5" y1="686.0" x2="771.5" y2="686.0" stroke="#2f7d4f" stroke-width="4.5" stroke-linecap="round"/><line x1="771.5" y1="686.0" x2="771.5" y2="774.0" stroke="#2f7d4f" stroke-width="3.0" stroke-linecap="round"/><line x1="663.5" y1="774.0" x2="771.5" y2="774.0" stroke="#2f7d4f" stroke-width="3.0" stroke-linecap="round"/><line x1="663.5" y1="686.0" x2="663.5" y2="774.0" stroke="#2f7d4f" stroke-width="3.0" stroke-linecap="round"/></g><text x="717.5" y="856" font-family="Iowan Old Style, Palatino Linotype, Palatino, Georgia, 'Times New Roman', serif" font-size="17" fill="#2c2316" font-weight="700" text-anchor="middle" >Square</text><text x="717.5" y="876" font-family="Avenir Next Condensed, 'Avenir Next', 'Helvetica Neue', Helvetica, sans-serif" font-size="11.5" fill="#6e6047" font-weight="400" text-anchor="middle" >foot only · 2 moves to form</text><line x1="845" y1="650" x2="845" y2="830" stroke="#b6a682" stroke-width="0.8" stroke-dasharray="2 4"/><rect x="914.5" y="681.5" width="116" height="97" fill="none" stroke="#2c2316" stroke-width="1" stroke-dasharray="2 5"/><g><rect x="920.5" y="687.5" width="104" height="85" rx="4" fill="#f5eedb" stroke="#6e6047" stroke-width="1.2" opacity="0.96"/><rect x="927.5" y="694.5" width="14" height="14" rx="3.2" fill="#3a6e90" stroke="#27516c" stroke-width="1.3"/><rect x="946.5" y="694.5" width="14" height="14" rx="3.2" fill="#3a6e90" stroke="#27516c" stroke-width="1.3"/><rect x="965.5" y="694.5" width="14" height="14" rx="3.2" fill="#3a6e90" stroke="#27516c" stroke-width="1.3"/><rect x="984.5" y="694.5" width="14" height="14" rx="3.2" fill="#3a6e90" stroke="#27516c" stroke-width="1.3"/><rect x="1003.5" y="694.5" width="14" height="14" rx="3.2" fill="#3a6e90" stroke="#27516c" stroke-width="1.3"/><rect x="927.5" y="713.5" width="14" height="14" rx="3.2" fill="#3a6e90" stroke="#27516c" stroke-width="1.3"/><rect x="946.5" y="713.5" width="14" height="14" rx="3.2" fill="#3a6e90" stroke="#27516c" stroke-width="1.3"/><rect x="965.5" y="713.5" width="14" height="14" rx="3.2" fill="#3a6e90" stroke="#27516c" stroke-width="1.3"/><rect x="984.5" y="713.5" width="14" height="14" rx="3.2" fill="#3a6e90" stroke="#27516c" stroke-width="1.3"/><rect x="1003.5" y="713.5" width="14" height="14" rx="3.2" fill="#3a6e90" stroke="#27516c" stroke-width="1.3"/><rect x="927.5" y="732.5" width="14" height="14" rx="3.2" fill="#3a6e90" stroke="#27516c" stroke-width="1.3"/><rect x="946.5" y="732.5" width="14" height="14" rx="3.2" fill="#3a6e90" stroke="#27516c" stroke-width="1.3"/><rect x="965.5" y="732.5" width="14" height="14" rx="3.2" fill="#3a6e90" stroke="#27516c" stroke-width="1.3"/><rect x="984.5" y="732.5" width="14" height="14" rx="3.2" fill="#3a6e90" stroke="#27516c" stroke-width="1.3"/><rect x="1003.5" y="732.5" width="14" height="14" rx="3.2" fill="#3a6e90" stroke="#27516c" stroke-width="1.3"/><rect x="927.5" y="751.5" width="14" height="14" rx="3.2" fill="#3a6e90" stroke="#27516c" stroke-width="1.3"/><rect x="946.5" y="751.5" width="14" height="14" rx="3.2" fill="#3a6e90" stroke="#27516c" stroke-width="1.3"/><rect x="965.5" y="751.5" width="14" height="14" rx="3.2" fill="#3a6e90" stroke="#27516c" stroke-width="1.3"/><rect x="984.5" y="751.5" width="14" height="14" rx="3.2" fill="#3a6e90" stroke="#27516c" stroke-width="1.3"/><rect x="1003.5" y="751.5" width="14" height="14" rx="3.2" fill="#3a6e90" stroke="#27516c" stroke-width="1.3"/><line x1="934.5" y1="687.5" x2="934.5" y2="680.5" stroke="#2c2316" stroke-width="1.6"/><line x1="934.5" y1="772.5" x2="934.5" y2="779.5" stroke="#2c2316" stroke-width="1.6"/><line x1="953.5" y1="687.5" x2="953.5" y2="680.5" stroke="#2c2316" stroke-width="1.6"/><line x1="953.5" y1="772.5" x2="953.5" y2="779.5" stroke="#2c2316" stroke-width="1.6"/><line x1="972.5" y1="687.5" x2="972.5" y2="680.5" stroke="#2c2316" stroke-width="1.6"/><line x1="972.5" y1="772.5" x2="972.5" y2="779.5" stroke="#2c2316" stroke-width="1.6"/><line x1="991.5" y1="687.5" x2="991.5" y2="680.5" stroke="#2c2316" stroke-width="1.6"/><line x1="991.5" y1="772.5" x2="991.5" y2="779.5" stroke="#2c2316" stroke-width="1.6"/><line x1="1010.5" y1="687.5" x2="1010.5" y2="680.5" stroke="#2c2316" stroke-width="1.6"/><line x1="1010.5" y1="772.5" x2="1010.5" y2="779.5" stroke="#2c2316" stroke-width="1.6"/><line x1="920.5" y1="701.5" x2="913.5" y2="701.5" stroke="#2c2316" stroke-width="1.6"/><line x1="1024.5" y1="701.5" x2="1031.5" y2="701.5" stroke="#2c2316" stroke-width="1.6"/><line x1="920.5" y1="720.5" x2="913.5" y2="720.5" stroke="#2c2316" stroke-width="1.6"/><line x1="1024.5" y1="720.5" x2="1031.5" y2="720.5" stroke="#2c2316" stroke-width="1.6"/><line x1="920.5" y1="739.5" x2="913.5" y2="739.5" stroke="#2c2316" stroke-width="1.6"/><line x1="1024.5" y1="739.5" x2="1031.5" y2="739.5" stroke="#2c2316" stroke-width="1.6"/><line x1="920.5" y1="758.5" x2="913.5" y2="758.5" stroke="#2c2316" stroke-width="1.6"/><line x1="1024.5" y1="758.5" x2="1031.5" y2="758.5" stroke="#2c2316" stroke-width="1.6"/><line x1="920.5" y1="687.5" x2="1024.5" y2="687.5" stroke="#2f7d4f" stroke-width="4.5" stroke-linecap="round"/><line x1="1024.5" y1="687.5" x2="1024.5" y2="772.5" stroke="#2f7d4f" stroke-width="3.0" stroke-linecap="round"/><line x1="920.5" y1="772.5" x2="1024.5" y2="772.5" stroke="#2f7d4f" stroke-width="3.0" stroke-linecap="round"/><line x1="920.5" y1="687.5" x2="920.5" y2="772.5" stroke="#2f7d4f" stroke-width="3.0" stroke-linecap="round"/></g><text x="972.5" y="856" font-family="Iowan Old Style, Palatino Linotype, Palatino, Georgia, 'Times New Roman', serif" font-size="17" fill="#2c2316" font-weight="700" text-anchor="middle" >Hedgehog</text><text x="972.5" y="876" font-family="Avenir Next Condensed, 'Avenir Next', 'Helvetica Neue', Helvetica, sans-serif" font-size="11.5" fill="#6e6047" font-weight="400" text-anchor="middle" >Swiss · ½ speed · no charge</text><line x1="60" y1="892" x2="1120" y2="892" stroke="#b6a682" stroke-width="1"/><text x="60" y="924" font-family="Avenir Next Condensed, 'Avenir Next', 'Helvetica Neue', Helvetica, sans-serif" font-size="14" fill="#2c2316" font-weight="700" letter-spacing="3" text-anchor="start">3 · CONTACT RESOLUTION &amp; ORDER</text><g><rect x="243" y="1003" width="123" height="94" rx="4" fill="#f5eedb" stroke="#6e6047" stroke-width="1.2" opacity="0.96"/><rect x="250" y="1010" width="22" height="22" rx="3.2" fill="#ecd08a" stroke="#27516c" stroke-width="1.3"/><rect x="253" y="1013" width="16" height="16" rx="2" fill="none" stroke="#27516c" stroke-width="1"/><rect x="279" y="1010" width="22" height="22" rx="3.2" fill="#ecd08a" stroke="#27516c" stroke-width="1.3"/><rect x="282" y="1013" width="16" height="16" rx="2" fill="none" stroke="#27516c" stroke-width="1"/><rect x="308" y="1010" width="22" height="22" rx="3.2" fill="#ecd08a" stroke="#27516c" stroke-width="1.3"/><rect x="311" y="1013" width="16" height="16" rx="2" fill="none" stroke="#27516c" stroke-width="1"/><rect x="337" y="1010" width="22" height="22" rx="3.2" fill="#ecd08a" stroke="#27516c" stroke-width="1.3"/><rect x="340" y="1013" width="16" height="16" rx="2" fill="none" stroke="#27516c" stroke-width="1"/><rect x="250" y="1039" width="22" height="22" rx="3.2" fill="#3a6e90" stroke="#27516c" stroke-width="1.3"/><rect x="279" y="1039" width="22" height="22" rx="3.2" fill="#3a6e90" stroke="#27516c" stroke-width="1.3"/><rect x="308" y="1039" width="22" height="22" rx="3.2" fill="#3a6e90" stroke="#27516c" stroke-width="1.3"/><rect x="337" y="1039" width="22" height="22" rx="3.2" fill="#3a6e90" stroke="#27516c" stroke-width="1.3"/><rect x="250" y="1068" width="22" height="22" rx="3.2" fill="#3a6e90" stroke="#27516c" stroke-width="1.3"/><rect x="279" y="1068" width="22" height="22" rx="3.2" fill="#3a6e90" stroke="#27516c" stroke-width="1.3"/><rect x="308" y="1068" width="22" height="22" rx="3.2" fill="#3a6e90" stroke="#27516c" stroke-width="1.3"/><rect x="337" y="1068" width="22" height="22" rx="3.2" fill="#3a6e90" stroke="#27516c" stroke-width="1.3"/><line x1="243" y1="1003" x2="366" y2="1003" stroke="#2f7d4f" stroke-width="4.5" stroke-linecap="round"/><line x1="366" y1="1003" x2="366" y2="1097" stroke="#c0892e" stroke-width="3.0" stroke-linecap="round"/><line x1="243" y1="1097" x2="366" y2="1097" stroke="#c0892e" stroke-width="3.0" stroke-linecap="round"/><line x1="243" y1="1003" x2="243" y2="1097" stroke="#b0392c" stroke-width="3.0" stroke-linecap="round"/></g><g><rect x="243" y="1111" width="168" height="34" rx="4" fill="#2c2316" /><rect x="252" y="1120" width="16" height="16" rx="2.5" fill="#3a6e90" stroke="#000" stroke-opacity="0.25"/><text x="277" y="1127" font-family="Avenir Next Condensed, 'Avenir Next', 'Helvetica Neue', Helvetica, sans-serif" font-size="12" fill="#f3ead4" font-weight="700" letter-spacing="1.6" text-anchor="start">DEFENDER</text><text x="277" y="1139" font-family="Avenir Next Condensed, 'Avenir Next', 'Helvetica Neue', Helvetica, sans-serif" font-size="11" fill="#caa86f" letter-spacing="1">facing north</text></g><g transform="rotate(90 470 1048)"><g><rect x="429" y="1007" width="80" height="56" rx="4" fill="#f5eedb" stroke="#6e6047" stroke-width="1.2" opacity="0.96"/><rect x="436" y="1014" width="18" height="18" rx="3.2" fill="#ecd08a" stroke="#73291d" stroke-width="1.3"/><rect x="439" y="1017" width="12" height="12" rx="2" fill="none" stroke="#73291d" stroke-width="1"/><rect x="460" y="1014" width="18" height="18" rx="3.2" fill="#ecd08a" stroke="#73291d" stroke-width="1.3"/><rect x="463" y="1017" width="12" height="12" rx="2" fill="none" stroke="#73291d" stroke-width="1"/><rect x="484" y="1014" width="18" height="18" rx="3.2" fill="#ecd08a" stroke="#73291d" stroke-width="1.3"/><rect x="487" y="1017" width="12" height="12" rx="2" fill="none" stroke="#73291d" stroke-width="1"/><rect x="436" y="1038" width="18" height="18" rx="3.2" fill="#9c3b2c" stroke="#73291d" stroke-width="1.3"/><rect x="460" y="1038" width="18" height="18" rx="3.2" fill="#9c3b2c" stroke="#73291d" stroke-width="1.3"/><rect x="484" y="1038" width="18" height="18" rx="3.2" fill="#9c3b2c" stroke="#73291d" stroke-width="1.3"/><line x1="429" y1="1007" x2="509" y2="1007" stroke="#2f7d4f" stroke-width="4.5" stroke-linecap="round"/><line x1="509" y1="1007" x2="509" y2="1063" stroke="#c0892e" stroke-width="3.0" stroke-linecap="round"/><line x1="429" y1="1063" x2="509" y2="1063" stroke="#c0892e" stroke-width="3.0" stroke-linecap="round"/><line x1="429" y1="1007" x2="429" y2="1063" stroke="#b0392c" stroke-width="3.0" stroke-linecap="round"/></g></g><defs><marker id="ah" markerWidth="9" markerHeight="9" refX="7" refY="4.5" orient="auto"><path d="M0,0 L9,4.5 L0,9 Z" fill="#73291d"/></marker></defs><line x1="446" y1="1050.0" x2="374" y2="1050.0" stroke="#73291d" stroke-width="2.4" marker-end="url(#ah)"/><text x="430" y="1111" font-family="Avenir Next Condensed, 'Avenir Next', 'Helvetica Neue', Helvetica, sans-serif" font-size="11.5" fill="#73291d" font-weight="700" letter-spacing="1.2" text-anchor="start">ATTACKER → FLANK</text><rect x="384" y="970" width="232" height="30" rx="4" fill="#c0892e" opacity="0.16"/><text x="394" y="990" font-family="Avenir Next Condensed, 'Avenir Next', 'Helvetica Neue', Helvetica, sans-serif" font-size="13.5" fill="#7a5410" font-weight="700" text-anchor="start" >FLANK → attack one class up</text><rect x="243" y="1155" width="300" height="28" rx="4" fill="#b0392c" opacity="0.14"/><text x="253" y="1174" font-family="Avenir Next Condensed, 'Avenir Next', 'Helvetica Neue', Helvetica, sans-serif" font-size="13" fill="#7d271d" font-weight="700" text-anchor="start" >REAR → casualties dealt, no return blow</text><rect x="740" y="958" width="380" height="322" rx="6" fill="#f5eedb" stroke="#b6a682" stroke-width="1"/><text x="760" y="988" font-family="Avenir Next Condensed, 'Avenir Next', 'Helvetica Neue', Helvetica, sans-serif" font-size="12.5" fill="#2c2316" font-weight="700" letter-spacing="1.8" text-anchor="start">CLOSE VS OPEN ORDER</text><g><rect x="763" y="1011" width="114" height="62" rx="4" fill="#f5eedb" stroke="#6e6047" stroke-width="1.2" opacity="0.96"/><rect x="770" y="1018" width="22" height="22" rx="3.2" fill="#3a6e90" stroke="#27516c" stroke-width="1.3"/><rect x="796" y="1018" width="22" height="22" rx="3.2" fill="#3a6e90" stroke="#27516c" stroke-width="1.3"/><rect x="822" y="1018" width="22" height="22" rx="3.2" fill="#3a6e90" stroke="#27516c" stroke-width="1.3"/><rect x="848" y="1018" width="22" height="22" rx="3.2" fill="#3a6e90" stroke="#27516c" stroke-width="1.3"/><rect x="770" y="1044" width="22" height="22" rx="3.2" fill="#3a6e90" stroke="#27516c" stroke-width="1.3"/><rect x="796" y="1044" width="22" height="22" rx="3.2" fill="#3a6e90" stroke="#27516c" stroke-width="1.3"/><rect x="822" y="1044" width="22" height="22" rx="3.2" fill="#3a6e90" stroke="#27516c" stroke-width="1.3"/><rect x="848" y="1044" width="22" height="22" rx="3.2" fill="#3a6e90" stroke="#27516c" stroke-width="1.3"/><line x1="763" y1="1011" x2="877" y2="1011" stroke="#2f7d4f" stroke-width="4.5" stroke-linecap="round"/><line x1="877" y1="1011" x2="877" y2="1073" stroke="#c0892e" stroke-width="3.0" stroke-linecap="round"/><line x1="763" y1="1073" x2="877" y2="1073" stroke="#c0892e" stroke-width="3.0" stroke-linecap="round"/><line x1="763" y1="1011" x2="763" y2="1073" stroke="#b0392c" stroke-width="3.0" stroke-linecap="round"/></g><text x="770" y="1097" font-family="Iowan Old Style, Palatino Linotype, Palatino, Georgia, 'Times New Roman', serif" font-size="13.5" fill="#2c2316" font-weight="600" text-anchor="start" >Close order (≤ 1″ apart)</text><text x="770" y="1117" font-family="Avenir Next Condensed, 'Avenir Next', 'Helvetica Neue', Helvetica, sans-serif" font-size="11.5" fill="#6e6047" font-weight="400" text-anchor="start" >formed · frontal-only casualties · Swiss = Heavy Foot</text><g><rect x="763" y="1139" width="150" height="74" rx="4" fill="#f5eedb" stroke="#6e6047" stroke-width="1.2" opacity="0.96"/><rect x="770" y="1146" width="22" height="22" rx="3.2" fill="#3a6e90" stroke="#27516c" stroke-width="1.3"/><rect x="808" y="1146" width="22" height="22" rx="3.2" fill="#3a6e90" stroke="#27516c" stroke-width="1.3"/><rect x="846" y="1146" width="22" height="22" rx="3.2" fill="#3a6e90" stroke="#27516c" stroke-width="1.3"/><rect x="884" y="1146" width="22" height="22" rx="3.2" fill="#3a6e90" stroke="#27516c" stroke-width="1.3"/><rect x="770" y="1184" width="22" height="22" rx="3.2" fill="#3a6e90" stroke="#27516c" stroke-width="1.3"/><rect x="808" y="1184" width="22" height="22" rx="3.2" fill="#3a6e90" stroke="#27516c" stroke-width="1.3"/><rect x="846" y="1184" width="22" height="22" rx="3.2" fill="#3a6e90" stroke="#27516c" stroke-width="1.3"/><rect x="884" y="1184" width="22" height="22" rx="3.2" fill="#3a6e90" stroke="#27516c" stroke-width="1.3"/><line x1="763" y1="1139" x2="913" y2="1139" stroke="#2f7d4f" stroke-width="4.5" stroke-linecap="round"/><line x1="913" y1="1139" x2="913" y2="1213" stroke="#c0892e" stroke-width="3.0" stroke-linecap="round"/><line x1="763" y1="1213" x2="913" y2="1213" stroke="#c0892e" stroke-width="3.0" stroke-linecap="round"/><line x1="763" y1="1139" x2="763" y2="1213" stroke="#b0392c" stroke-width="3.0" stroke-linecap="round"/></g><text x="770" y="1235" font-family="Iowan Old Style, Palatino Linotype, Palatino, Georgia, 'Times New Roman', serif" font-size="13.5" fill="#2c2316" font-weight="600" text-anchor="start" >Open order (&gt; 1″ apart)</text><text x="770" y="1255" font-family="Avenir Next Condensed, 'Avenir Next', 'Helvetica Neue', Helvetica, sans-serif" font-size="11.5" fill="#6e6047" font-weight="400" text-anchor="start" >loose · Swiss = Light Foot if flanked / open</text><line x1="60" y1="1300" x2="1120" y2="1300" stroke="#b6a682" stroke-width="1"/><rect x="80" y="1327" width="16" height="16" rx="2.5" fill="#2f7d4f" stroke="#2c2316" stroke-width="0.8"/><text x="104" y="1340" font-family="Avenir Next Condensed, 'Avenir Next', 'Helvetica Neue', Helvetica, sans-serif" font-size="11.5" fill="#6e6047" font-weight="600" letter-spacing="1" text-anchor="start">FRONT EDGE</text><rect x="225" y="1327" width="16" height="16" rx="2.5" fill="#c0892e" stroke="#2c2316" stroke-width="0.8"/><text x="249" y="1340" font-family="Avenir Next Condensed, 'Avenir Next', 'Helvetica Neue', Helvetica, sans-serif" font-size="11.5" fill="#6e6047" font-weight="600" letter-spacing="1" text-anchor="start">FLANK</text><rect x="370" y="1327" width="16" height="16" rx="2.5" fill="#b0392c" stroke="#2c2316" stroke-width="0.8"/><text x="394" y="1340" font-family="Avenir Next Condensed, 'Avenir Next', 'Helvetica Neue', Helvetica, sans-serif" font-size="11.5" fill="#6e6047" font-weight="600" letter-spacing="1" text-anchor="start">REAR</text><rect x="515" y="1327" width="16" height="16" rx="2.5" fill="#ecd08a" stroke="#2c2316" stroke-width="0.8"/><text x="539" y="1340" font-family="Avenir Next Condensed, 'Avenir Next', 'Helvetica Neue', Helvetica, sans-serif" font-size="11.5" fill="#6e6047" font-weight="600" letter-spacing="1" text-anchor="start">FRONT RANK</text><rect x="660" y="1327" width="16" height="16" rx="2.5" fill="#3a6e90" stroke="#2c2316" stroke-width="0.8"/><text x="684" y="1340" font-family="Avenir Next Condensed, 'Avenir Next', 'Helvetica Neue', Helvetica, sans-serif" font-size="11.5" fill="#6e6047" font-weight="600" letter-spacing="1" text-anchor="start">FRIENDLY</text><rect x="805" y="1327" width="16" height="16" rx="2.5" fill="#9c3b2c" stroke="#2c2316" stroke-width="0.8"/><text x="829" y="1340" font-family="Avenir Next Condensed, 'Avenir Next', 'Helvetica Neue', Helvetica, sans-serif" font-size="11.5" fill="#6e6047" font-weight="600" letter-spacing="1" text-anchor="start">ENEMY</text><rect x="950" y="1327" width="16" height="16" rx="2.5" fill="#d8b25a" stroke="#2c2316" stroke-width="0.8"/><text x="974" y="1340" font-family="Avenir Next Condensed, 'Avenir Next', 'Helvetica Neue', Helvetica, sans-serif" font-size="11.5" fill="#6e6047" font-weight="600" letter-spacing="1" text-anchor="start">ARC OF FIRE</text><text x="80" y="1390" font-family="Avenir Next Condensed, 'Avenir Next', 'Helvetica Neue', Helvetica, sans-serif" font-size="11.5" fill="#6e6047" font-weight="500" letter-spacing="1" text-anchor="start">DUAL UNIT: FRONTAGE/RANKS/SHOCK COUNTED IN FIGURES · MOVEMENT, RANGE &amp; TERRAIN MEASURED IN INCHES</text></svg>